<?xml version="1.0" encoding="utf-8"?>
<!-- Generator: Adobe Illustrator 26.0.0, SVG Export Plug-In . SVG Version: 6.00 Build 0)  -->
<svg version="1.1" id="图层_1" xmlns="http://www.w3.org/2000/svg" xmlns:xlink="http://www.w3.org/1999/xlink" x="0px" y="0px"
	 viewBox="0 0 576 504" style="enable-background:new 0 0 576 504;" xml:space="preserve">
<style type="text/css">
	.st0{fill:#E52E37;}
	.st1{fill:#FFFFFF;}
</style>
<path class="st0" d="M411.05,331.48H231.24c-18.73,0-33.9-15.18-33.9-33.9V117.76c0-18.73,15.18-33.9,33.9-33.9h179.81
	c18.73,0,33.9,15.18,33.9,33.9v179.81C444.95,316.3,429.77,331.48,411.05,331.48z"/>
<g>
	<path class="st1" d="M247.9,129.13l7.43-0.21l-2.68,161.66h-1.03L247.9,129.13z M396.76,246.2l-3.72,42.94l-136.89,1.45
		l4.54-161.66l45.83-0.41l-0.62,61.11l80.73-7.64l-3.1,45.42l-78.25,4.34l-0.21,20.23L396.76,246.2z M389.74,163.82l-75.98,8.67
		l3.72-43.77l78.04-1.03L389.74,163.82z"/>
</g>
</svg>
